<svg height="64px" width="64px" version="1.1" id="Layer_1" xmlns="http://www.w3.org/2000/svg" xmlns:xlink="http://www.w3.org/1999/xlink" viewBox="0 0 511.997 511.997" xml:space="preserve" fill="#000000"><g id="SVGRepo_bgCarrier" stroke-width="0"></g><g id="SVGRepo_tracerCarrier" stroke-linecap="round" stroke-linejoin="round"></g><g id="SVGRepo_iconCarrier"> <g> <polygon style="fill:#18384C;" points="132.412,35.31 379.585,35.31 379.585,0 132.412,0 "></polygon> <g> <path style="fill:#285680;" d="M255.999,35.308v141.241c9.825,0,17.858,7.83,18.123,17.646l7.91,300.615 c0.247,9.56,8.077,17.187,17.646,17.187h62.252c9.754,0,17.655-7.901,17.655-17.655V35.308H255.999z"></path> <path style="fill:#285680;" d="M255.999,176.549V35.308H132.412v459.034c0,9.754,7.901,17.655,17.655,17.655h62.252 c9.569,0,17.399-7.627,17.646-17.187l7.91-300.615C238.14,184.379,246.174,176.549,255.999,176.549"></path> </g> <g> <polygon style="fill:#18384C;" points="229.516,141.239 194.206,158.894 158.895,141.239 158.895,70.618 229.516,70.618 "></polygon> <polygon style="fill:#18384C;" points="353.102,141.239 317.792,158.894 282.481,141.239 282.481,70.618 353.102,70.618 "></polygon> </g> </g> </g></svg>